# xmcd
#
# Track frame offsets:
# 150
# 19107
# 34022
# 44077
# 58140
# 75915
# 94917
# 104655
# 126010
# 134362
#
# Disc length: 2041 seconds
#
# Revision: 0
# Processed by: cddbd v1.5.1PL2 Copyright (c) Steve Scherf et al.
# Submitted via: Audion 3.0.2 (http://www.panic.com/audion/)
#
DISCID=8507f70a
DTITLE=Dao Strom - Send Me Home
DYEAR=1900
DGENRE=
TTITLE0=Perfume River
TTITLE1=When U Go Out
TTITLE2=Hesitating
TTITLE3=Wake Up In the Cold
TTITLE4=My Little Angel
TTITLE5=Send Me Home
TTITLE6=My Tall Friend
TTITLE7=Day That We Met
TTITLE8=Jesus Song
TTITLE9=I Am a Poor Wayfaring Stranger
EXTD=
EXTT0=
EXTT1=
EXTT2=
EXTT3=
EXTT4=
EXTT5=
EXTT6=
EXTT7=
EXTT8=
EXTT9=
PLAYORDER=
